<svg xmlns="http://www.w3.org/2000/svg" viewBox="0 0 243.03 111.57"><defs><style>.cls-1{fill:#c42323;}.cls-2{fill:#93653b;}</style></defs><title>Asset 2</title><g id="Layer_2" data-name="Layer 2"><g id="Layer_1-2" data-name="Layer 1"><rect class="cls-1" x="7.43" y="98.53" width="26.72" height="12.54"/><path d="M33.66,99v11.54H7.93V99H33.66m1-1H6.93v13.54H34.66V98Z"/><rect class="cls-1" x="35.16" y="98.53" width="26.72" height="12.54"/><path d="M61.38,99v11.54H35.66V99H61.38m1-1H34.66v13.54H62.38V98Z"/><rect class="cls-1" x="62.88" y="98.53" width="26.72" height="12.54"/><path d="M89.1,99v11.54H63.38V99H89.1m1-1H62.38v13.54H90.1V98Z"/><rect class="cls-1" x="90.6" y="98.53" width="26.73" height="12.54"/><path d="M116.83,99v11.54H91.1V99h25.72m1-1H90.1v13.54h27.72V98Z"/><rect class="cls-1" x="21.29" y="85.31" width="26.72" height="12.54"/><path d="M47.52,85.81V97.35H21.79V85.81H47.52m1-1H20.79V98.35H48.52V84.81Z"/><rect class="cls-1" x="21.29" y="85.96" width="26.72" height="12.54"/><path d="M47.52,86.46V98H21.79V86.46H47.52m1-1H20.79V99H48.52V85.46Z"/><rect class="cls-1" x="49.02" y="85.31" width="26.72" height="12.54"/><path d="M75.24,85.81V97.35H49.52V85.81H75.24m1-1H48.52V98.35H76.24V84.81Z"/><rect class="cls-1" x="76.74" y="85.31" width="26.72" height="12.54"/><path d="M103,85.81V97.35H77.24V85.81H103m1-1H76.24V98.35H104V84.81Z"/><rect class="cls-1" x="104.47" y="85.31" width="26.73" height="12.54"/><path d="M130.69,85.81V97.35H105V85.81h25.72m1-1H104V98.35h27.72V84.81Z"/><rect class="cls-1" x="0.5" y="72.09" width="26.72" height="12.54"/><path d="M26.72,72.59V84.13H1V72.59H26.72m1-1H0V85.13H27.72V71.59Z"/><rect class="cls-1" x="28.22" y="72.09" width="26.72" height="12.54"/><path d="M54.45,72.59V84.13H28.72V72.59H54.45m1-1H27.72V85.13H55.45V71.59Z"/><rect class="cls-1" x="55.95" y="72.09" width="26.72" height="12.54"/><path d="M82.17,72.59V84.13H56.45V72.59H82.17m1-1H55.45V85.13H83.17V71.59Z"/><rect class="cls-1" x="83.67" y="72.09" width="26.72" height="12.54"/><path d="M109.9,72.59V84.13H84.17V72.59H109.9m1-1H83.17V85.13H110.9V71.59Z"/><rect class="cls-1" x="14.36" y="58.88" width="26.72" height="12.54"/><path d="M40.59,59.38V70.92H14.86V59.38H40.59m1-1H13.86V71.92H41.59V58.38Z"/><rect class="cls-1" x="14.36" y="59.52" width="26.72" height="12.54"/><path d="M40.59,60V71.56H14.86V60H40.59m1-1H13.86V72.56H41.59V59Z"/><rect class="cls-1" x="42.09" y="58.88" width="26.72" height="12.54"/><path d="M68.31,59.38V70.92H42.59V59.38H68.31m1-1H41.59V71.92H69.31V58.38Z"/><rect class="cls-1" x="69.81" y="58.88" width="26.72" height="12.54"/><path d="M96,59.38V70.92H70.31V59.38H96m1-1H69.31V71.92H97V58.38Z"/><rect class="cls-1" x="97.54" y="58.88" width="26.72" height="12.54"/><path d="M123.76,59.38V70.92H98V59.38h25.72m1-1H97V71.92h27.72V58.38Z"/><rect class="cls-2" x="118.33" y="98.37" width="26.72" height="12.54"/><path d="M144.55,98.87v11.54H118.83V98.87h25.72m1-1H117.83v13.54h27.72V97.87Z"/><rect class="cls-2" x="146.05" y="98.37" width="26.72" height="12.54"/><path d="M172.28,98.87v11.54H146.55V98.87h25.72m1-1H145.55v13.54h27.72V97.87Z"/><rect class="cls-2" x="173.78" y="98.37" width="26.72" height="12.54"/><path d="M200,98.87v11.54H174.28V98.87H200m1-1H173.28v13.54H201V97.87Z"/><rect class="cls-2" x="201.5" y="98.37" width="26.72" height="12.54"/><path d="M227.73,98.87v11.54H202V98.87h25.72m1-1H201v13.54h27.72V97.87Z"/><rect class="cls-2" x="132.19" y="85.15" width="26.72" height="12.54"/><path d="M158.42,85.65V97.19H132.69V85.65h25.72m1-1H131.69V98.19h27.72V84.65Z"/><rect class="cls-2" x="132.19" y="85.79" width="26.72" height="12.54"/><path d="M158.42,86.29V97.83H132.69V86.29h25.72m1-1H131.69V98.83h27.72V85.29Z"/><rect class="cls-2" x="159.92" y="85.15" width="26.72" height="12.54"/><path d="M186.14,85.65V97.19H160.42V85.65h25.72m1-1H159.42V98.19h27.72V84.65Z"/><rect class="cls-2" x="187.64" y="85.15" width="26.72" height="12.54"/><path d="M213.87,85.65V97.19H188.14V85.65h25.72m1-1H187.14V98.19h27.72V84.65Z"/><rect class="cls-2" x="215.37" y="85.15" width="26.72" height="12.54"/><path d="M241.59,85.65V97.19H215.87V85.65h25.72m1-1H214.87V98.19h27.72V84.65Z"/><rect class="cls-2" x="111.4" y="71.93" width="26.72" height="12.54"/><path d="M137.62,72.43V84H111.9V72.43h25.72m1-1H110.9V85h27.72V71.43Z"/><rect class="cls-2" x="139.12" y="71.93" width="26.72" height="12.54"/><path d="M165.35,72.43V84H139.62V72.43h25.72m1-1H138.62V85h27.72V71.43Z"/><rect class="cls-2" x="166.85" y="71.93" width="26.72" height="12.54"/><path d="M193.07,72.43V84H167.35V72.43h25.72m1-1H166.35V85h27.72V71.43Z"/><rect class="cls-2" x="194.57" y="71.93" width="26.72" height="12.54"/><path d="M220.8,72.43V84H195.07V72.43H220.8m1-1H194.07V85H221.8V71.43Z"/><rect class="cls-2" x="125.26" y="58.71" width="26.72" height="12.54"/><path d="M151.49,59.21V70.75H125.76V59.21h25.72m1-1H124.76V71.75h27.72V58.21Z"/><rect class="cls-2" x="125.26" y="59.36" width="26.72" height="12.54"/><path d="M151.49,59.86V71.4H125.76V59.86h25.72m1-1H124.76V72.4h27.72V58.86Z"/><rect class="cls-2" x="152.99" y="58.71" width="26.72" height="12.54"/><path d="M179.21,59.21V70.75H153.49V59.21h25.72m1-1H152.49V71.75h27.72V58.21Z"/><rect class="cls-2" x="180.71" y="58.71" width="26.72" height="12.54"/><path d="M206.93,59.21V70.75H181.21V59.21h25.72m1-1H180.21V71.75h27.72V58.21Z"/><rect class="cls-2" x="208.43" y="58.71" width="26.72" height="12.54"/><path d="M234.66,59.21V70.75H208.93V59.21h25.72m1-1H207.93V71.75h27.72V58.21Z"/><path d="M44.3,55H18.66V0H28V46.83H44.3Z"/><path d="M91.69,55h-10l-2-5.42a17.79,17.79,0,0,1-14.18,6.53A18.45,18.45,0,0,1,47,37.52,18.41,18.41,0,0,1,59.24,20.08a18.74,18.74,0,0,1,6.39-1.18A18,18,0,0,1,76.3,22.27a18.35,18.35,0,0,1,6.77,8.93ZM74.8,37.49a8.7,8.7,0,0,0-4-7.6,9,9,0,0,0-5.28-1.6,8.53,8.53,0,0,0-7.5,3.91,9.21,9.21,0,0,0-1.67,5.3,8.64,8.64,0,0,0,4,7.53,9.14,9.14,0,0,0,11.74-1A8.84,8.84,0,0,0,74.8,37.49Z"/><path d="M181.88,55H172.5V37.43a9.12,9.12,0,0,0-9.17-9.15,8.7,8.7,0,0,0-7.85,4.37V55h-9.38V37.43A8.77,8.77,0,0,0,143.37,31a8.88,8.88,0,0,0-6.49-2.7A9,9,0,0,0,130.33,31a8.74,8.74,0,0,0-2.72,6.48V55h-9.38V37.42a17.8,17.8,0,0,1,5.42-13.14,18.76,18.76,0,0,1,26.41.11,18.76,18.76,0,0,1,26.41-.11,17.8,17.8,0,0,1,5.42,13.14Z"/><path d="M221.77,37.45a18.62,18.62,0,1,1-37.25,0V18.9h9.38V37.45A8.94,8.94,0,0,0,196.59,44a8.84,8.84,0,0,0,6.52,2.71,9.27,9.27,0,0,0,9.28-9.24V18.9h9.38Z"/><path d="M243,28.26a9,9,0,0,0-6.53,2.67,8.76,8.76,0,0,0-2.71,6.48V55h-9.38V37.42a17.8,17.8,0,0,1,5.42-13.14A18,18,0,0,1,243,18.9Z"/></g></g></svg>